<mxfile host="app.diagrams.net" modified="2024-02-12T15:01:39.074Z" agent="Mozilla/5.0 (Macintosh; Intel Mac OS X 10_15_7) AppleWebKit/537.36 (KHTML, like Gecko) Chrome/121.0.0.0 Safari/537.36" etag="tmKq3djMURwT5sNAtGHy" version="23.1.2" type="device">
  <diagram name="Page-1" id="ZatiJnpHUkvGbKSq7CAD">
    <mxGraphModel dx="3900" dy="3735" grid="1" gridSize="10" guides="1" tooltips="1" connect="1" arrows="1" fold="1" page="1" pageScale="1" pageWidth="827" pageHeight="1169" math="0" shadow="0">
      <root>
        <mxCell id="0" />
        <mxCell id="1" parent="0" />
        <mxCell id="Utss6rI0hRLTQqYTxFO2-147" value="" style="group" vertex="1" connectable="0" parent="1">
          <mxGeometry x="44" y="210" width="730" height="2040" as="geometry" />
        </mxCell>
        <mxCell id="Utss6rI0hRLTQqYTxFO2-5" value="" style="rounded=0;whiteSpace=wrap;html=1;" vertex="1" parent="Utss6rI0hRLTQqYTxFO2-147">
          <mxGeometry x="144.30232558139534" width="585.6976744186046" height="2040" as="geometry" />
        </mxCell>
        <mxCell id="Utss6rI0hRLTQqYTxFO2-34" value="" style="group;" vertex="1" connectable="0" parent="Utss6rI0hRLTQqYTxFO2-147">
          <mxGeometry x="144.3" y="9.62" width="285.7" height="635.09" as="geometry" />
        </mxCell>
        <mxCell id="Utss6rI0hRLTQqYTxFO2-42" value="" style="group" vertex="1" connectable="0" parent="Utss6rI0hRLTQqYTxFO2-34">
          <mxGeometry x="5.185121806738246" width="283.76959459459454" height="635.09" as="geometry" />
        </mxCell>
        <mxCell id="Utss6rI0hRLTQqYTxFO2-32" value="" style="whiteSpace=wrap;html=1;shadow=0;align=center;fillColor=#999999;" vertex="1" parent="Utss6rI0hRLTQqYTxFO2-42">
          <mxGeometry width="283.76959459459454" height="635.09" as="geometry" />
        </mxCell>
        <mxCell id="Utss6rI0hRLTQqYTxFO2-30" value="Cas d&#39;utilisation visiteur" style="text;html=1;strokeColor=none;fillColor=none;align=center;verticalAlign=middle;whiteSpace=wrap;rounded=0;fontFamily=Helvetica;fontSize=12;fontColor=default;" vertex="1" parent="Utss6rI0hRLTQqYTxFO2-42">
          <mxGeometry x="71.42499999999998" y="19.245151515151512" width="111.96351351351349" height="28.867727272727272" as="geometry" />
        </mxCell>
        <mxCell id="Utss6rI0hRLTQqYTxFO2-18" value="Poster un avis en tant que visiteur" style="ellipse;whiteSpace=wrap;html=1;horizontal=1;verticalAlign=middle;align=center;" vertex="1" parent="Utss6rI0hRLTQqYTxFO2-42">
          <mxGeometry x="21.234459459459455" y="529.2416666666667" width="92.65945945945943" height="76.98060606060605" as="geometry" />
        </mxCell>
        <mxCell id="Utss6rI0hRLTQqYTxFO2-22" value="Consulter les avis des visiteurs" style="ellipse;whiteSpace=wrap;html=1;horizontal=1;verticalAlign=middle;align=center;" vertex="1" parent="Utss6rI0hRLTQqYTxFO2-42">
          <mxGeometry x="21.234459459459455" y="442.63848484848484" width="92.65945945945943" height="76.98060606060605" as="geometry" />
        </mxCell>
        <mxCell id="Utss6rI0hRLTQqYTxFO2-17" value="Consulter les détails d&#39;un animal" style="ellipse;whiteSpace=wrap;html=1;horizontal=1;verticalAlign=middle;align=center;" vertex="1" parent="Utss6rI0hRLTQqYTxFO2-42">
          <mxGeometry x="21.234459459459455" y="356.03530303030306" width="92.65945945945943" height="76.98060606060605" as="geometry" />
        </mxCell>
        <mxCell id="Utss6rI0hRLTQqYTxFO2-16" value="Consulter les détails d&#39;un habitat" style="ellipse;whiteSpace=wrap;html=1;horizontal=1;verticalAlign=middle;align=center;" vertex="1" parent="Utss6rI0hRLTQqYTxFO2-42">
          <mxGeometry x="21.234459459459455" y="269.43212121212116" width="92.65945945945943" height="76.98060606060605" as="geometry" />
        </mxCell>
        <mxCell id="Utss6rI0hRLTQqYTxFO2-7" value="Naviguer vers les différentes sections" style="ellipse;whiteSpace=wrap;html=1;horizontal=1;verticalAlign=middle;align=center;" vertex="1" parent="Utss6rI0hRLTQqYTxFO2-42">
          <mxGeometry x="21.234459459459455" y="182.82893939393938" width="92.65945945945943" height="76.98060606060605" as="geometry" />
        </mxCell>
        <mxCell id="Utss6rI0hRLTQqYTxFO2-6" value="Consulter la page d&#39;accueil" style="ellipse;whiteSpace=wrap;html=1;shadow=0;horizontal=1;verticalAlign=middle;align=center;" vertex="1" parent="Utss6rI0hRLTQqYTxFO2-42">
          <mxGeometry x="21.234459459459455" y="96.22575757575758" width="92.65945945945943" height="76.98060606060605" as="geometry" />
        </mxCell>
        <mxCell id="Utss6rI0hRLTQqYTxFO2-11" value="Contact" style="ellipse;whiteSpace=wrap;html=1;" vertex="1" parent="Utss6rI0hRLTQqYTxFO2-42">
          <mxGeometry x="175.66689189189185" y="279.054696969697" width="92.65945945945943" height="76.98060606060605" as="geometry" />
        </mxCell>
        <mxCell id="Utss6rI0hRLTQqYTxFO2-9" value="Services" style="ellipse;whiteSpace=wrap;html=1;" vertex="1" parent="Utss6rI0hRLTQqYTxFO2-42">
          <mxGeometry x="175.66689189189185" y="173.20636363636365" width="92.65945945945943" height="76.98060606060605" as="geometry" />
        </mxCell>
        <mxCell id="Utss6rI0hRLTQqYTxFO2-8" value="Habitats" style="ellipse;whiteSpace=wrap;html=1;" vertex="1" parent="Utss6rI0hRLTQqYTxFO2-42">
          <mxGeometry x="175.66689189189185" y="76.98060606060605" width="92.65945945945943" height="76.98060606060605" as="geometry" />
        </mxCell>
        <mxCell id="Utss6rI0hRLTQqYTxFO2-36" value="" style="endArrow=classic;html=1;rounded=0;fontFamily=Helvetica;fontSize=12;fontColor=default;dashed=1;endFill=1;" edge="1" parent="Utss6rI0hRLTQqYTxFO2-42" source="Utss6rI0hRLTQqYTxFO2-7" target="Utss6rI0hRLTQqYTxFO2-8">
          <mxGeometry width="50" height="50" relative="1" as="geometry">
            <mxPoint x="121.61554054054052" y="221.31924242424242" as="sourcePoint" />
            <mxPoint x="160.2236486486486" y="173.20636363636365" as="targetPoint" />
          </mxGeometry>
        </mxCell>
        <mxCell id="Utss6rI0hRLTQqYTxFO2-142" value="&amp;lt;&amp;lt;include&amp;gt;&amp;gt;" style="edgeLabel;html=1;align=center;verticalAlign=middle;resizable=0;points=[];fontFamily=Helvetica;fontSize=12;fontColor=default;" vertex="1" connectable="0" parent="Utss6rI0hRLTQqYTxFO2-36">
          <mxGeometry x="0.3777" y="1" relative="1" as="geometry">
            <mxPoint x="-17" y="7" as="offset" />
          </mxGeometry>
        </mxCell>
        <mxCell id="Utss6rI0hRLTQqYTxFO2-144" value="&amp;lt;&amp;lt;include&amp;gt;&amp;gt;" style="edgeLabel;html=1;align=center;verticalAlign=middle;resizable=0;points=[];fontFamily=Helvetica;fontSize=12;fontColor=default;" vertex="1" connectable="0" parent="Utss6rI0hRLTQqYTxFO2-36">
          <mxGeometry x="0.3777" y="1" relative="1" as="geometry">
            <mxPoint x="-17" y="117" as="offset" />
          </mxGeometry>
        </mxCell>
        <mxCell id="Utss6rI0hRLTQqYTxFO2-37" value="" style="endArrow=classic;html=1;rounded=0;fontFamily=Helvetica;fontSize=12;fontColor=default;dashed=1;endFill=1;" edge="1" parent="Utss6rI0hRLTQqYTxFO2-42" source="Utss6rI0hRLTQqYTxFO2-7" target="Utss6rI0hRLTQqYTxFO2-9">
          <mxGeometry width="50" height="50" relative="1" as="geometry">
            <mxPoint x="110.80527027027024" y="206.88537878787878" as="sourcePoint" />
            <mxPoint x="194.1987837837837" y="149.14992424242422" as="targetPoint" />
          </mxGeometry>
        </mxCell>
        <mxCell id="Utss6rI0hRLTQqYTxFO2-143" value="&amp;lt;&amp;lt;include&amp;gt;&amp;gt;" style="edgeLabel;html=1;align=center;verticalAlign=middle;resizable=0;points=[];fontFamily=Helvetica;fontSize=12;fontColor=default;" vertex="1" connectable="0" parent="Utss6rI0hRLTQqYTxFO2-37">
          <mxGeometry x="-0.1975" y="2" relative="1" as="geometry">
            <mxPoint x="5" as="offset" />
          </mxGeometry>
        </mxCell>
        <mxCell id="Utss6rI0hRLTQqYTxFO2-39" value="" style="endArrow=classic;html=1;rounded=0;fontFamily=Helvetica;fontSize=12;fontColor=default;dashed=1;endFill=1;" edge="1" parent="Utss6rI0hRLTQqYTxFO2-42" source="Utss6rI0hRLTQqYTxFO2-7" target="Utss6rI0hRLTQqYTxFO2-11">
          <mxGeometry width="50" height="50" relative="1" as="geometry">
            <mxPoint x="113.8939189189189" y="252.11148484848485" as="sourcePoint" />
            <mxPoint x="191.11013513513507" y="296.37533333333334" as="targetPoint" />
          </mxGeometry>
        </mxCell>
        <mxCell id="Utss6rI0hRLTQqYTxFO2-2" value="Vétérinaire" style="shape=umlActor;verticalLabelPosition=bottom;verticalAlign=top;html=1;outlineConnect=0;" vertex="1" parent="Utss6rI0hRLTQqYTxFO2-147">
          <mxGeometry x="16.97674418604651" y="1751.3207547169811" width="25.465116279069765" height="57.735849056603776" as="geometry" />
        </mxCell>
        <mxCell id="Utss6rI0hRLTQqYTxFO2-3" value="Visiteur" style="shape=umlActor;verticalLabelPosition=bottom;verticalAlign=top;html=1;outlineConnect=0;" vertex="1" parent="Utss6rI0hRLTQqYTxFO2-147">
          <mxGeometry y="269.4339622641509" width="25.465116279069765" height="57.735849056603776" as="geometry" />
        </mxCell>
        <mxCell id="Utss6rI0hRLTQqYTxFO2-4" value="Employé" style="shape=umlActor;verticalLabelPosition=bottom;verticalAlign=top;html=1;outlineConnect=0;" vertex="1" parent="Utss6rI0hRLTQqYTxFO2-147">
          <mxGeometry x="25.465116279069765" y="1501.132075471698" width="25.465116279069765" height="57.735849056603776" as="geometry" />
        </mxCell>
        <mxCell id="Utss6rI0hRLTQqYTxFO2-83" value="" style="endArrow=none;html=1;rounded=0;fontFamily=Helvetica;fontSize=12;fontColor=default;" edge="1" parent="Utss6rI0hRLTQqYTxFO2-147" source="Utss6rI0hRLTQqYTxFO2-3" target="Utss6rI0hRLTQqYTxFO2-6">
          <mxGeometry width="50" height="50" relative="1" as="geometry">
            <mxPoint x="16.97674418604651" y="365.66037735849056" as="sourcePoint" />
            <mxPoint x="59.41860465116279" y="317.54716981132077" as="targetPoint" />
          </mxGeometry>
        </mxCell>
        <mxCell id="Utss6rI0hRLTQqYTxFO2-84" value="" style="endArrow=none;html=1;rounded=0;fontFamily=Helvetica;fontSize=12;fontColor=default;" edge="1" parent="Utss6rI0hRLTQqYTxFO2-147" source="Utss6rI0hRLTQqYTxFO2-3" target="Utss6rI0hRLTQqYTxFO2-7">
          <mxGeometry width="50" height="50" relative="1" as="geometry">
            <mxPoint x="33.95348837209302" y="423.39622641509436" as="sourcePoint" />
            <mxPoint x="190.98837209302326" y="306" as="targetPoint" />
          </mxGeometry>
        </mxCell>
        <mxCell id="Utss6rI0hRLTQqYTxFO2-85" value="" style="endArrow=none;html=1;rounded=0;fontFamily=Helvetica;fontSize=12;fontColor=default;" edge="1" parent="Utss6rI0hRLTQqYTxFO2-147" source="Utss6rI0hRLTQqYTxFO2-3" target="Utss6rI0hRLTQqYTxFO2-16">
          <mxGeometry width="50" height="50" relative="1" as="geometry">
            <mxPoint x="33.95348837209302" y="429.1698113207547" as="sourcePoint" />
            <mxPoint x="179.953488372093" y="381.0566037735849" as="targetPoint" />
          </mxGeometry>
        </mxCell>
        <mxCell id="Utss6rI0hRLTQqYTxFO2-86" value="" style="endArrow=none;html=1;rounded=0;fontFamily=Helvetica;fontSize=12;fontColor=default;" edge="1" parent="Utss6rI0hRLTQqYTxFO2-147" source="Utss6rI0hRLTQqYTxFO2-3" target="Utss6rI0hRLTQqYTxFO2-17">
          <mxGeometry width="50" height="50" relative="1" as="geometry">
            <mxPoint x="33.95348837209302" y="433.9811320754717" as="sourcePoint" />
            <mxPoint x="176.5581395348837" y="447.45283018867923" as="targetPoint" />
          </mxGeometry>
        </mxCell>
        <mxCell id="Utss6rI0hRLTQqYTxFO2-87" value="" style="endArrow=none;html=1;rounded=0;fontFamily=Helvetica;fontSize=12;fontColor=default;" edge="1" parent="Utss6rI0hRLTQqYTxFO2-147" source="Utss6rI0hRLTQqYTxFO2-3" target="Utss6rI0hRLTQqYTxFO2-22">
          <mxGeometry width="50" height="50" relative="1" as="geometry">
            <mxPoint x="33.95348837209302" y="439.7547169811321" as="sourcePoint" />
            <mxPoint x="185.04651162790697" y="517.6981132075472" as="targetPoint" />
          </mxGeometry>
        </mxCell>
        <mxCell id="Utss6rI0hRLTQqYTxFO2-88" value="" style="endArrow=none;html=1;rounded=0;fontFamily=Helvetica;fontSize=12;fontColor=default;" edge="1" parent="Utss6rI0hRLTQqYTxFO2-147" source="Utss6rI0hRLTQqYTxFO2-3" target="Utss6rI0hRLTQqYTxFO2-18">
          <mxGeometry width="50" height="50" relative="1" as="geometry">
            <mxPoint x="33.95348837209302" y="444.5660377358491" as="sourcePoint" />
            <mxPoint x="195.23255813953486" y="595.6415094339623" as="targetPoint" />
          </mxGeometry>
        </mxCell>
        <mxCell id="Utss6rI0hRLTQqYTxFO2-79" value="Se connecter" style="ellipse;whiteSpace=wrap;html=1;strokeColor=default;align=center;verticalAlign=middle;fontFamily=Helvetica;fontSize=12;fontColor=default;fillColor=default;" vertex="1" parent="Utss6rI0hRLTQqYTxFO2-147">
          <mxGeometry x="590" y="1190" width="120" height="80" as="geometry" />
        </mxCell>
        <mxCell id="Utss6rI0hRLTQqYTxFO2-35" value="Couche non nommée" parent="0" />
        <mxCell id="Utss6rI0hRLTQqYTxFO2-96" value="" style="group" vertex="1" connectable="0" parent="Utss6rI0hRLTQqYTxFO2-35">
          <mxGeometry x="304" y="1580" width="240" height="310" as="geometry" />
        </mxCell>
        <mxCell id="Utss6rI0hRLTQqYTxFO2-92" value="" style="rounded=0;whiteSpace=wrap;html=1;strokeColor=default;align=center;verticalAlign=middle;fontFamily=Helvetica;fontSize=12;fontColor=default;fillColor=#999999;" vertex="1" parent="Utss6rI0hRLTQqYTxFO2-96">
          <mxGeometry width="240" height="310" as="geometry" />
        </mxCell>
        <mxCell id="Utss6rI0hRLTQqYTxFO2-93" value="Gérer les avis des visiteurs en tant qu&#39;employé" style="ellipse;whiteSpace=wrap;html=1;" vertex="1" parent="Utss6rI0hRLTQqYTxFO2-96">
          <mxGeometry x="60" y="130" width="120" height="80" as="geometry" />
        </mxCell>
        <mxCell id="Utss6rI0hRLTQqYTxFO2-94" value="Saisir l&#39;alimentation des animaux en tant qu&#39;employé" style="ellipse;whiteSpace=wrap;html=1;" vertex="1" parent="Utss6rI0hRLTQqYTxFO2-96">
          <mxGeometry x="60" y="40" width="120" height="80" as="geometry" />
        </mxCell>
        <mxCell id="Utss6rI0hRLTQqYTxFO2-95" value="Cas d&#39;utilisation employer" style="text;html=1;strokeColor=none;fillColor=none;align=center;verticalAlign=middle;whiteSpace=wrap;rounded=0;fontFamily=Helvetica;fontSize=12;fontColor=default;" vertex="1" parent="Utss6rI0hRLTQqYTxFO2-96">
          <mxGeometry x="45" width="150" height="30" as="geometry" />
        </mxCell>
        <mxCell id="Utss6rI0hRLTQqYTxFO2-116" value="Modifier service du zoo" style="ellipse;whiteSpace=wrap;html=1;" vertex="1" parent="Utss6rI0hRLTQqYTxFO2-96">
          <mxGeometry x="60" y="220" width="120" height="80" as="geometry" />
        </mxCell>
        <mxCell id="Utss6rI0hRLTQqYTxFO2-73" value="" style="group" vertex="1" connectable="0" parent="Utss6rI0hRLTQqYTxFO2-35">
          <mxGeometry x="194" y="860" width="310" height="690" as="geometry" />
        </mxCell>
        <mxCell id="Utss6rI0hRLTQqYTxFO2-60" value="" style="rounded=0;whiteSpace=wrap;html=1;strokeColor=default;align=center;verticalAlign=middle;fontFamily=Helvetica;fontSize=12;fontColor=default;fillColor=#999999;" vertex="1" parent="Utss6rI0hRLTQqYTxFO2-73">
          <mxGeometry width="279.7560975609756" height="690" as="geometry" />
        </mxCell>
        <mxCell id="Utss6rI0hRLTQqYTxFO2-61" value="" style="group" vertex="1" connectable="0" parent="Utss6rI0hRLTQqYTxFO2-73">
          <mxGeometry x="-166.34146341463415" y="27.6" width="272.1951219512195" height="368" as="geometry" />
        </mxCell>
        <mxCell id="Utss6rI0hRLTQqYTxFO2-108" value="" style="shape=flexArrow;endArrow=classic;html=1;rounded=0;fontFamily=Helvetica;fontSize=12;fontColor=default;" edge="1" parent="Utss6rI0hRLTQqYTxFO2-61">
          <mxGeometry width="50" height="50" relative="1" as="geometry">
            <mxPoint x="52.926829268292686" y="156.4" as="sourcePoint" />
            <mxPoint x="52.926829268292686" y="-294.40000000000003" as="targetPoint" />
          </mxGeometry>
        </mxCell>
        <mxCell id="Utss6rI0hRLTQqYTxFO2-1" value="Admin" style="shape=umlActor;verticalLabelPosition=bottom;verticalAlign=top;html=1;outlineConnect=0;" vertex="1" parent="Utss6rI0hRLTQqYTxFO2-61">
          <mxGeometry x="45.36585365853659" y="165.6" width="22.682926829268293" height="55.2" as="geometry" />
        </mxCell>
        <mxCell id="Utss6rI0hRLTQqYTxFO2-112" value="" style="shape=flexArrow;endArrow=classic;html=1;rounded=0;fontFamily=Helvetica;fontSize=12;fontColor=default;" edge="1" parent="Utss6rI0hRLTQqYTxFO2-61">
          <mxGeometry width="50" height="50" relative="1" as="geometry">
            <mxPoint x="60.48780487804878" y="257.6" as="sourcePoint" />
            <mxPoint x="68.04878048780488" y="763.6" as="targetPoint" />
          </mxGeometry>
        </mxCell>
        <mxCell id="Utss6rI0hRLTQqYTxFO2-72" value="Cas d&#39;utilisation administarateur" style="text;html=1;strokeColor=none;fillColor=none;align=center;verticalAlign=middle;whiteSpace=wrap;rounded=0;fontFamily=Helvetica;fontSize=12;fontColor=default;" vertex="1" parent="Utss6rI0hRLTQqYTxFO2-73">
          <mxGeometry x="83.17073170731707" y="9.200000000000001" width="143.65853658536585" height="27.6" as="geometry" />
        </mxCell>
        <mxCell id="Utss6rI0hRLTQqYTxFO2-64" value="Gestion employe" style="ellipse;whiteSpace=wrap;html=1;" vertex="1" parent="Utss6rI0hRLTQqYTxFO2-73">
          <mxGeometry x="15.121951219512194" y="36.800000000000004" width="90.73170731707317" height="73.60000000000001" as="geometry" />
        </mxCell>
        <mxCell id="Utss6rI0hRLTQqYTxFO2-68" value="&amp;lt;&amp;lt;include&amp;gt;&amp;gt;" style="endArrow=none;dashed=1;html=1;strokeWidth=2;rounded=0;fontFamily=Helvetica;fontSize=12;fontColor=default;endFill=0;startArrow=classic;startFill=1;" edge="1" parent="Utss6rI0hRLTQqYTxFO2-73" source="Utss6rI0hRLTQqYTxFO2-62" target="Utss6rI0hRLTQqYTxFO2-64">
          <mxGeometry x="-0.0149" y="-16" width="50" height="50" relative="1" as="geometry">
            <mxPoint x="499.0243902439024" y="-147.20000000000002" as="sourcePoint" />
            <mxPoint x="536.829268292683" y="-193.20000000000002" as="targetPoint" />
            <mxPoint as="offset" />
          </mxGeometry>
        </mxCell>
        <mxCell id="Utss6rI0hRLTQqYTxFO2-62" value="CRUD" style="ellipse;whiteSpace=wrap;html=1;" vertex="1" parent="Utss6rI0hRLTQqYTxFO2-73">
          <mxGeometry x="158.78048780487805" y="202.4" width="113.41463414634147" height="92" as="geometry" />
        </mxCell>
        <mxCell id="Utss6rI0hRLTQqYTxFO2-69" value="" style="endArrow=none;dashed=1;html=1;strokeWidth=2;rounded=0;fontFamily=Helvetica;fontSize=12;fontColor=default;startArrow=classic;startFill=1;" edge="1" parent="Utss6rI0hRLTQqYTxFO2-73" source="Utss6rI0hRLTQqYTxFO2-62" target="Utss6rI0hRLTQqYTxFO2-65">
          <mxGeometry width="50" height="50" relative="1" as="geometry">
            <mxPoint x="517.170731707317" y="-116.84" as="sourcePoint" />
            <mxPoint x="609.4146341463414" y="-186.76000000000002" as="targetPoint" />
          </mxGeometry>
        </mxCell>
        <mxCell id="Utss6rI0hRLTQqYTxFO2-145" value="&amp;lt;&amp;lt;include&amp;gt;&amp;gt;" style="edgeLabel;html=1;align=center;verticalAlign=middle;resizable=0;points=[];fontFamily=Helvetica;fontSize=12;fontColor=default;" vertex="1" connectable="0" parent="Utss6rI0hRLTQqYTxFO2-69">
          <mxGeometry x="-0.1749" y="-1" relative="1" as="geometry">
            <mxPoint x="-26" y="-16" as="offset" />
          </mxGeometry>
        </mxCell>
        <mxCell id="Utss6rI0hRLTQqYTxFO2-70" value="&lt;meta charset=&quot;utf-8&quot;&gt;&lt;span style=&quot;color: rgb(0, 0, 0); font-family: Helvetica; font-size: 12px; font-style: normal; font-variant-ligatures: normal; font-variant-caps: normal; font-weight: 400; letter-spacing: normal; orphans: 2; text-align: center; text-indent: 0px; text-transform: none; widows: 2; word-spacing: 0px; -webkit-text-stroke-width: 0px; background-color: rgb(255, 255, 255); text-decoration-thickness: initial; text-decoration-style: initial; text-decoration-color: initial; float: none; display: inline !important;&quot;&gt;&amp;lt;&amp;lt;include&amp;gt;&amp;gt;&lt;/span&gt;" style="endArrow=none;dashed=1;html=1;strokeWidth=2;rounded=0;fontFamily=Helvetica;fontSize=12;fontColor=default;startArrow=classic;startFill=1;" edge="1" parent="Utss6rI0hRLTQqYTxFO2-73" source="Utss6rI0hRLTQqYTxFO2-62" target="Utss6rI0hRLTQqYTxFO2-66">
          <mxGeometry x="0.1538" y="-3" width="50" height="50" relative="1" as="geometry">
            <mxPoint x="528.5121951219512" y="-99.36" as="sourcePoint" />
            <mxPoint x="598.0731707317074" y="-112.24000000000001" as="targetPoint" />
            <mxPoint as="offset" />
          </mxGeometry>
        </mxCell>
        <mxCell id="Utss6rI0hRLTQqYTxFO2-71" value="&lt;meta charset=&quot;utf-8&quot;&gt;&lt;span style=&quot;color: rgb(0, 0, 0); font-family: Helvetica; font-size: 12px; font-style: normal; font-variant-ligatures: normal; font-variant-caps: normal; font-weight: 400; letter-spacing: normal; orphans: 2; text-align: center; text-indent: 0px; text-transform: none; widows: 2; word-spacing: 0px; -webkit-text-stroke-width: 0px; background-color: rgb(255, 255, 255); text-decoration-thickness: initial; text-decoration-style: initial; text-decoration-color: initial; float: none; display: inline !important;&quot;&gt;&amp;lt;&amp;lt;include&amp;gt;&amp;gt;&lt;/span&gt;" style="endArrow=none;dashed=1;html=1;strokeWidth=2;rounded=0;fontFamily=Helvetica;fontSize=12;fontColor=default;" edge="1" parent="Utss6rI0hRLTQqYTxFO2-73" source="Utss6rI0hRLTQqYTxFO2-62" target="Utss6rI0hRLTQqYTxFO2-67">
          <mxGeometry x="0.1507" y="2" width="50" height="50" relative="1" as="geometry">
            <mxPoint x="524.7317073170732" y="-75.44" as="sourcePoint" />
            <mxPoint x="601.8536585365854" y="-44.160000000000004" as="targetPoint" />
            <mxPoint as="offset" />
          </mxGeometry>
        </mxCell>
        <mxCell id="Utss6rI0hRLTQqYTxFO2-63" value="Consulter les statistiques de consultation des habitats en tant qu&#39;administrateur" style="ellipse;whiteSpace=wrap;html=1;" vertex="1" parent="Utss6rI0hRLTQqYTxFO2-73">
          <mxGeometry y="579.6" width="136.09756097560975" height="92" as="geometry" />
        </mxCell>
        <mxCell id="Utss6rI0hRLTQqYTxFO2-65" value="Gestion vétérinaire" style="ellipse;whiteSpace=wrap;html=1;" vertex="1" parent="Utss6rI0hRLTQqYTxFO2-73">
          <mxGeometry x="15.121951219512194" y="110.4" width="90.73170731707317" height="73.60000000000001" as="geometry" />
        </mxCell>
        <mxCell id="Utss6rI0hRLTQqYTxFO2-113" value="Gestion services" style="ellipse;whiteSpace=wrap;html=1;" vertex="1" parent="Utss6rI0hRLTQqYTxFO2-73">
          <mxGeometry x="15.121951219512194" y="331.2" width="90.73170731707317" height="73.60000000000001" as="geometry" />
        </mxCell>
        <mxCell id="Utss6rI0hRLTQqYTxFO2-115" value="&lt;meta charset=&quot;utf-8&quot;&gt;&lt;span style=&quot;color: rgb(0, 0, 0); font-family: Helvetica; font-size: 12px; font-style: normal; font-variant-ligatures: normal; font-variant-caps: normal; font-weight: 400; letter-spacing: normal; orphans: 2; text-align: center; text-indent: 0px; text-transform: none; widows: 2; word-spacing: 0px; -webkit-text-stroke-width: 0px; background-color: rgb(255, 255, 255); text-decoration-thickness: initial; text-decoration-style: initial; text-decoration-color: initial; float: none; display: inline !important;&quot;&gt;&amp;lt;&amp;lt;include&amp;gt;&amp;gt;&lt;/span&gt;" style="endArrow=none;dashed=1;html=1;strokeWidth=2;rounded=0;fontFamily=Helvetica;fontSize=12;fontColor=default;startArrow=classic;startFill=1;" edge="1" parent="Utss6rI0hRLTQqYTxFO2-73" source="Utss6rI0hRLTQqYTxFO2-62" target="Utss6rI0hRLTQqYTxFO2-113">
          <mxGeometry width="50" height="50" relative="1" as="geometry">
            <mxPoint x="175.41463414634146" y="282.44" as="sourcePoint" />
            <mxPoint x="105.85365853658537" y="320.16" as="targetPoint" />
          </mxGeometry>
        </mxCell>
        <mxCell id="Utss6rI0hRLTQqYTxFO2-119" value="" style="endArrow=none;html=1;rounded=0;fontFamily=Helvetica;fontSize=12;fontColor=default;" edge="1" parent="Utss6rI0hRLTQqYTxFO2-73" source="Utss6rI0hRLTQqYTxFO2-113" target="Utss6rI0hRLTQqYTxFO2-1">
          <mxGeometry width="50" height="50" relative="1" as="geometry">
            <mxPoint x="370.4878048780488" y="506" as="sourcePoint" />
            <mxPoint x="143.65853658536585" y="506" as="targetPoint" />
          </mxGeometry>
        </mxCell>
        <mxCell id="Utss6rI0hRLTQqYTxFO2-120" value="" style="endArrow=none;html=1;rounded=0;fontFamily=Helvetica;fontSize=12;fontColor=default;" edge="1" parent="Utss6rI0hRLTQqYTxFO2-73" source="Utss6rI0hRLTQqYTxFO2-63" target="Utss6rI0hRLTQqYTxFO2-1">
          <mxGeometry width="50" height="50" relative="1" as="geometry">
            <mxPoint x="48.390243902439025" y="463.68" as="sourcePoint" />
            <mxPoint x="-90.73170731707317" y="247.48000000000002" as="targetPoint" />
            <Array as="points">
              <mxPoint x="-52.926829268292686" y="414" />
            </Array>
          </mxGeometry>
        </mxCell>
        <mxCell id="Utss6rI0hRLTQqYTxFO2-123" value="" style="endArrow=none;html=1;rounded=0;fontFamily=Helvetica;fontSize=12;fontColor=default;" edge="1" parent="Utss6rI0hRLTQqYTxFO2-73" source="Utss6rI0hRLTQqYTxFO2-65" target="Utss6rI0hRLTQqYTxFO2-1">
          <mxGeometry width="50" height="50" relative="1" as="geometry">
            <mxPoint x="23.4390243902439" y="250.24" as="sourcePoint" />
            <mxPoint x="-90.73170731707317" y="231.84" as="targetPoint" />
          </mxGeometry>
        </mxCell>
        <mxCell id="Utss6rI0hRLTQqYTxFO2-124" value="" style="endArrow=none;html=1;rounded=0;fontFamily=Helvetica;fontSize=12;fontColor=default;" edge="1" parent="Utss6rI0hRLTQqYTxFO2-73" source="Utss6rI0hRLTQqYTxFO2-64" target="Utss6rI0hRLTQqYTxFO2-1">
          <mxGeometry width="50" height="50" relative="1" as="geometry">
            <mxPoint x="25.70731707317073" y="188.6" as="sourcePoint" />
            <mxPoint x="-90.73170731707317" y="226.32000000000002" as="targetPoint" />
          </mxGeometry>
        </mxCell>
        <mxCell id="Utss6rI0hRLTQqYTxFO2-66" value="Gestion Habitat" style="ellipse;whiteSpace=wrap;html=1;" vertex="1" parent="Utss6rI0hRLTQqYTxFO2-73">
          <mxGeometry x="15.121951219512194" y="184" width="90.73170731707317" height="73.60000000000001" as="geometry" />
        </mxCell>
        <mxCell id="Utss6rI0hRLTQqYTxFO2-122" value="" style="endArrow=none;html=1;rounded=0;fontFamily=Helvetica;fontSize=12;fontColor=default;" edge="1" parent="Utss6rI0hRLTQqYTxFO2-73" source="Utss6rI0hRLTQqYTxFO2-66" target="Utss6rI0hRLTQqYTxFO2-1">
          <mxGeometry width="50" height="50" relative="1" as="geometry">
            <mxPoint x="32.51219512195122" y="317.40000000000003" as="sourcePoint" />
            <mxPoint x="-90.73170731707317" y="237.36" as="targetPoint" />
          </mxGeometry>
        </mxCell>
        <mxCell id="Utss6rI0hRLTQqYTxFO2-67" value="Gestion Animaux" style="ellipse;whiteSpace=wrap;html=1;" vertex="1" parent="Utss6rI0hRLTQqYTxFO2-73">
          <mxGeometry x="15.121951219512194" y="257.6" width="90.73170731707317" height="73.60000000000001" as="geometry" />
        </mxCell>
        <mxCell id="Utss6rI0hRLTQqYTxFO2-121" value="" style="endArrow=none;html=1;rounded=0;fontFamily=Helvetica;fontSize=12;fontColor=default;" edge="1" parent="Utss6rI0hRLTQqYTxFO2-73" source="Utss6rI0hRLTQqYTxFO2-67" target="Utss6rI0hRLTQqYTxFO2-1">
          <mxGeometry width="50" height="50" relative="1" as="geometry">
            <mxPoint x="41.58536585365854" y="392.84000000000003" as="sourcePoint" />
            <mxPoint x="-90.73170731707317" y="242.88000000000002" as="targetPoint" />
          </mxGeometry>
        </mxCell>
        <mxCell id="Utss6rI0hRLTQqYTxFO2-134" value="Modification des horaire" style="ellipse;whiteSpace=wrap;html=1;" vertex="1" parent="Utss6rI0hRLTQqYTxFO2-73">
          <mxGeometry x="15.121951219512194" y="404.8" width="90.73170731707317" height="73.60000000000001" as="geometry" />
        </mxCell>
        <mxCell id="Utss6rI0hRLTQqYTxFO2-135" value="" style="endArrow=none;html=1;rounded=0;fontFamily=Helvetica;fontSize=12;fontColor=default;" edge="1" parent="Utss6rI0hRLTQqYTxFO2-73" source="Utss6rI0hRLTQqYTxFO2-134" target="Utss6rI0hRLTQqYTxFO2-1">
          <mxGeometry width="50" height="50" relative="1" as="geometry">
            <mxPoint x="37.048780487804876" y="350.52000000000004" as="sourcePoint" />
            <mxPoint x="-90.73170731707317" y="240.12" as="targetPoint" />
            <Array as="points">
              <mxPoint x="-37.80487804878049" y="340.40000000000003" />
            </Array>
          </mxGeometry>
        </mxCell>
        <mxCell id="Utss6rI0hRLTQqYTxFO2-136" value="Consultait les compte rendu du vétérinaire" style="ellipse;whiteSpace=wrap;html=1;" vertex="1" parent="Utss6rI0hRLTQqYTxFO2-73">
          <mxGeometry x="15.121951219512194" y="487.6" width="90.73170731707317" height="73.60000000000001" as="geometry" />
        </mxCell>
        <mxCell id="Utss6rI0hRLTQqYTxFO2-137" value="" style="endArrow=none;html=1;rounded=0;fontFamily=Helvetica;fontSize=12;fontColor=default;" edge="1" parent="Utss6rI0hRLTQqYTxFO2-73" source="Utss6rI0hRLTQqYTxFO2-136" target="Utss6rI0hRLTQqYTxFO2-1">
          <mxGeometry width="50" height="50" relative="1" as="geometry">
            <mxPoint x="37.048780487804876" y="350.52000000000004" as="sourcePoint" />
            <mxPoint x="-90.73170731707317" y="240.12" as="targetPoint" />
            <Array as="points">
              <mxPoint x="-45.36585365853659" y="377.2" />
            </Array>
          </mxGeometry>
        </mxCell>
        <mxCell id="Utss6rI0hRLTQqYTxFO2-89" value="" style="endArrow=none;html=1;rounded=0;fontFamily=Helvetica;fontSize=12;fontColor=default;" edge="1" parent="Utss6rI0hRLTQqYTxFO2-35" source="Utss6rI0hRLTQqYTxFO2-79" target="Utss6rI0hRLTQqYTxFO2-62">
          <mxGeometry width="50" height="50" relative="1" as="geometry">
            <mxPoint x="744" y="1220" as="sourcePoint" />
            <mxPoint x="794" y="1170" as="targetPoint" />
          </mxGeometry>
        </mxCell>
        <mxCell id="Utss6rI0hRLTQqYTxFO2-90" value="" style="endArrow=none;html=1;rounded=0;fontFamily=Helvetica;fontSize=12;fontColor=default;" edge="1" parent="Utss6rI0hRLTQqYTxFO2-35" source="Utss6rI0hRLTQqYTxFO2-79" target="Utss6rI0hRLTQqYTxFO2-63">
          <mxGeometry width="50" height="50" relative="1" as="geometry">
            <mxPoint x="742" y="1373" as="sourcePoint" />
            <mxPoint x="567" y="1086" as="targetPoint" />
          </mxGeometry>
        </mxCell>
        <mxCell id="Utss6rI0hRLTQqYTxFO2-98" value="" style="endArrow=none;html=1;rounded=0;fontFamily=Helvetica;fontSize=12;fontColor=default;" edge="1" parent="Utss6rI0hRLTQqYTxFO2-35" source="Utss6rI0hRLTQqYTxFO2-94" target="Utss6rI0hRLTQqYTxFO2-4">
          <mxGeometry width="50" height="50" relative="1" as="geometry">
            <mxPoint x="709" y="1394" as="sourcePoint" />
            <mxPoint x="394" y="1303" as="targetPoint" />
          </mxGeometry>
        </mxCell>
        <mxCell id="Utss6rI0hRLTQqYTxFO2-99" value="" style="endArrow=none;html=1;rounded=0;fontFamily=Helvetica;fontSize=12;fontColor=default;" edge="1" parent="Utss6rI0hRLTQqYTxFO2-35" source="Utss6rI0hRLTQqYTxFO2-93" target="Utss6rI0hRLTQqYTxFO2-4">
          <mxGeometry width="50" height="50" relative="1" as="geometry">
            <mxPoint x="285" y="1477" as="sourcePoint" />
            <mxPoint x="124" y="1498" as="targetPoint" />
          </mxGeometry>
        </mxCell>
        <mxCell id="Utss6rI0hRLTQqYTxFO2-100" value="" style="endArrow=none;html=1;rounded=0;fontFamily=Helvetica;fontSize=12;fontColor=default;" edge="1" parent="Utss6rI0hRLTQqYTxFO2-35" source="Utss6rI0hRLTQqYTxFO2-79" target="Utss6rI0hRLTQqYTxFO2-93">
          <mxGeometry width="50" height="50" relative="1" as="geometry">
            <mxPoint x="289" y="1554" as="sourcePoint" />
            <mxPoint x="124" y="1504" as="targetPoint" />
          </mxGeometry>
        </mxCell>
        <mxCell id="Utss6rI0hRLTQqYTxFO2-101" value="" style="endArrow=none;html=1;rounded=0;fontFamily=Helvetica;fontSize=12;fontColor=default;" edge="1" parent="Utss6rI0hRLTQqYTxFO2-35" source="Utss6rI0hRLTQqYTxFO2-79" target="Utss6rI0hRLTQqYTxFO2-94">
          <mxGeometry width="50" height="50" relative="1" as="geometry">
            <mxPoint x="712" y="1430" as="sourcePoint" />
            <mxPoint x="396" y="1550" as="targetPoint" />
          </mxGeometry>
        </mxCell>
        <mxCell id="Utss6rI0hRLTQqYTxFO2-114" value="" style="group" vertex="1" connectable="0" parent="Utss6rI0hRLTQqYTxFO2-35">
          <mxGeometry x="304" y="1900" width="240" height="340" as="geometry" />
        </mxCell>
        <mxCell id="Utss6rI0hRLTQqYTxFO2-102" value="" style="rounded=0;whiteSpace=wrap;html=1;strokeColor=default;align=center;verticalAlign=middle;fontFamily=Helvetica;fontSize=12;fontColor=default;fillColor=#999999;" vertex="1" parent="Utss6rI0hRLTQqYTxFO2-114">
          <mxGeometry width="240" height="340" as="geometry" />
        </mxCell>
        <mxCell id="Utss6rI0hRLTQqYTxFO2-103" value="Cas d&#39;utilisation vétérinaire" style="text;html=1;strokeColor=none;fillColor=none;align=center;verticalAlign=middle;whiteSpace=wrap;rounded=0;fontFamily=Helvetica;fontSize=12;fontColor=default;" vertex="1" parent="Utss6rI0hRLTQqYTxFO2-114">
          <mxGeometry x="45" y="10" width="150" height="30" as="geometry" />
        </mxCell>
        <mxCell id="Utss6rI0hRLTQqYTxFO2-105" value="Saisir un compte rendu sur un animal en tant que vétérinaire" style="ellipse;whiteSpace=wrap;html=1;" vertex="1" parent="Utss6rI0hRLTQqYTxFO2-114">
          <mxGeometry x="60" y="50" width="120" height="80" as="geometry" />
        </mxCell>
        <mxCell id="Utss6rI0hRLTQqYTxFO2-125" value="mettre un commentaire sur les habitats" style="ellipse;whiteSpace=wrap;html=1;" vertex="1" parent="Utss6rI0hRLTQqYTxFO2-114">
          <mxGeometry x="60" y="140" width="120" height="80" as="geometry" />
        </mxCell>
        <mxCell id="Utss6rI0hRLTQqYTxFO2-126" value="Vois ce que l&#39;employer a donner a manger a l&#39;animal" style="ellipse;whiteSpace=wrap;html=1;" vertex="1" parent="Utss6rI0hRLTQqYTxFO2-114">
          <mxGeometry x="70" y="230" width="120" height="80" as="geometry" />
        </mxCell>
        <mxCell id="Utss6rI0hRLTQqYTxFO2-117" value="" style="endArrow=none;html=1;rounded=0;fontFamily=Helvetica;fontSize=12;fontColor=default;" edge="1" parent="Utss6rI0hRLTQqYTxFO2-35" source="Utss6rI0hRLTQqYTxFO2-116" target="Utss6rI0hRLTQqYTxFO2-4">
          <mxGeometry width="50" height="50" relative="1" as="geometry">
            <mxPoint x="373" y="1609" as="sourcePoint" />
            <mxPoint x="94" y="1496" as="targetPoint" />
          </mxGeometry>
        </mxCell>
        <mxCell id="Utss6rI0hRLTQqYTxFO2-118" value="" style="endArrow=none;html=1;rounded=0;fontFamily=Helvetica;fontSize=12;fontColor=default;" edge="1" parent="Utss6rI0hRLTQqYTxFO2-35" source="Utss6rI0hRLTQqYTxFO2-116" target="Utss6rI0hRLTQqYTxFO2-79">
          <mxGeometry width="50" height="50" relative="1" as="geometry">
            <mxPoint x="382" y="1692" as="sourcePoint" />
            <mxPoint x="94" y="1500" as="targetPoint" />
          </mxGeometry>
        </mxCell>
        <mxCell id="Utss6rI0hRLTQqYTxFO2-106" value="" style="endArrow=none;html=1;rounded=0;fontFamily=Helvetica;fontSize=12;fontColor=default;" edge="1" parent="Utss6rI0hRLTQqYTxFO2-35" source="Utss6rI0hRLTQqYTxFO2-105" target="Utss6rI0hRLTQqYTxFO2-2">
          <mxGeometry width="50" height="50" relative="1" as="geometry">
            <mxPoint x="289" y="1554" as="sourcePoint" />
            <mxPoint x="124" y="1504" as="targetPoint" />
          </mxGeometry>
        </mxCell>
        <mxCell id="Utss6rI0hRLTQqYTxFO2-127" value="" style="endArrow=none;html=1;rounded=0;fontFamily=Helvetica;fontSize=12;fontColor=default;" edge="1" parent="Utss6rI0hRLTQqYTxFO2-35" source="Utss6rI0hRLTQqYTxFO2-125" target="Utss6rI0hRLTQqYTxFO2-2">
          <mxGeometry width="50" height="50" relative="1" as="geometry">
            <mxPoint x="386" y="1876" as="sourcePoint" />
            <mxPoint x="114" y="1738" as="targetPoint" />
          </mxGeometry>
        </mxCell>
        <mxCell id="Utss6rI0hRLTQqYTxFO2-128" value="" style="endArrow=none;html=1;rounded=0;fontFamily=Helvetica;fontSize=12;fontColor=default;" edge="1" parent="Utss6rI0hRLTQqYTxFO2-35" source="Utss6rI0hRLTQqYTxFO2-126" target="Utss6rI0hRLTQqYTxFO2-2">
          <mxGeometry width="50" height="50" relative="1" as="geometry">
            <mxPoint x="395" y="1960" as="sourcePoint" />
            <mxPoint x="114" y="1742" as="targetPoint" />
          </mxGeometry>
        </mxCell>
        <mxCell id="Utss6rI0hRLTQqYTxFO2-132" value="" style="endArrow=none;html=1;rounded=0;fontFamily=Helvetica;fontSize=12;fontColor=default;" edge="1" parent="Utss6rI0hRLTQqYTxFO2-35" source="Utss6rI0hRLTQqYTxFO2-79" target="Utss6rI0hRLTQqYTxFO2-125">
          <mxGeometry width="50" height="50" relative="1" as="geometry">
            <mxPoint x="754" y="1542" as="sourcePoint" />
            <mxPoint x="534" y="1137" as="targetPoint" />
            <Array as="points">
              <mxPoint x="654" y="1880" />
            </Array>
          </mxGeometry>
        </mxCell>
        <mxCell id="Utss6rI0hRLTQqYTxFO2-133" value="" style="endArrow=none;html=1;rounded=0;fontFamily=Helvetica;fontSize=12;fontColor=default;" edge="1" parent="Utss6rI0hRLTQqYTxFO2-35" source="Utss6rI0hRLTQqYTxFO2-79" target="Utss6rI0hRLTQqYTxFO2-126">
          <mxGeometry width="50" height="50" relative="1" as="geometry">
            <mxPoint x="745" y="1615" as="sourcePoint" />
            <mxPoint x="463" y="1955" as="targetPoint" />
            <Array as="points">
              <mxPoint x="694" y="1920" />
            </Array>
          </mxGeometry>
        </mxCell>
        <mxCell id="Utss6rI0hRLTQqYTxFO2-107" value="" style="endArrow=none;html=1;rounded=0;fontFamily=Helvetica;fontSize=12;fontColor=default;" edge="1" parent="Utss6rI0hRLTQqYTxFO2-35" source="Utss6rI0hRLTQqYTxFO2-105" target="Utss6rI0hRLTQqYTxFO2-79">
          <mxGeometry width="50" height="50" relative="1" as="geometry">
            <mxPoint x="278" y="1745" as="sourcePoint" />
            <mxPoint x="114" y="1731" as="targetPoint" />
            <Array as="points">
              <mxPoint x="594" y="1860" />
              <mxPoint x="634" y="1710" />
            </Array>
          </mxGeometry>
        </mxCell>
        <mxCell id="Utss6rI0hRLTQqYTxFO2-139" value="" style="endArrow=none;html=1;rounded=0;fontFamily=Helvetica;fontSize=12;fontColor=default;" edge="1" parent="Utss6rI0hRLTQqYTxFO2-35" source="Utss6rI0hRLTQqYTxFO2-79" target="Utss6rI0hRLTQqYTxFO2-134">
          <mxGeometry width="50" height="50" relative="1" as="geometry">
            <mxPoint x="251" y="1121" as="sourcePoint" />
            <mxPoint x="94" y="1065" as="targetPoint" />
          </mxGeometry>
        </mxCell>
        <mxCell id="Utss6rI0hRLTQqYTxFO2-140" value="" style="endArrow=none;html=1;rounded=0;fontFamily=Helvetica;fontSize=12;fontColor=default;" edge="1" parent="Utss6rI0hRLTQqYTxFO2-35" source="Utss6rI0hRLTQqYTxFO2-79" target="Utss6rI0hRLTQqYTxFO2-136">
          <mxGeometry width="50" height="50" relative="1" as="geometry">
            <mxPoint x="729" y="1553" as="sourcePoint" />
            <mxPoint x="349" y="1327" as="targetPoint" />
          </mxGeometry>
        </mxCell>
      </root>
    </mxGraphModel>
  </diagram>
</mxfile>
